<?xml version="1.0" encoding="utf-8"?>
<!-- Generator: Adobe Illustrator 19.0.0, SVG Export Plug-In . SVG Version: 6.00 Build 0)  -->
<svg version="1.1" id="Layer_1" xmlns="http://www.w3.org/2000/svg" xmlns:xlink="http://www.w3.org/1999/xlink" x="0px" y="0px"
	 viewBox="-349 351 300 300" style="enable-background:new -349 351 300 300;" xml:space="preserve">
<style type="text/css">
	.st0{fill:#D4614C;}
	.st1{fill:#D44B52;}
</style>
<g id="widget" transform="matrix(1,0,0,1,150,150)">
	<path class="st0" d="M-384.8,279.9l-73.3-56.5l12.1,91.8L-384.8,279.9z"/>
	<path class="st0" d="M-308.6,281l73.3-56.5l-12.1,91.8L-308.6,281z"/>
	<path class="st1" d="M-384.8,292.2l-60.9-46.9l8.6,65L-384.8,292.2z"/>
	<path class="st1" d="M-307.6,293.4l60.9-46.9l-10,76.3L-307.6,293.4z"/>
	<path class="st1" d="M-236,383.8c8.3-53.2-22.8-106.5-75.8-123.8l0,0c-52.9-17.3-109.7,7.1-134.2,55.2L-236,383.8z M-457.3,353
		c-6.1,51.6,25,102.2,76.4,119l0,0c51.4,16.8,106.4-5.7,131.9-51L-457.3,353z"/>
</g>
</svg>
